<svg width="20" height="20" viewBox="0 0 20 20" fill="none" xmlns="http://www.w3.org/2000/svg">
<path d="M5.34935 14.7749C3.49102 13.5582 2.29102 11.7249 2.29102 10.1165C2.29102 7.3832 5.74102 4.0332 9.99935 4.0332C11.741 4.0332 13.3577 4.59154 14.6577 5.4582" stroke="currentColor" stroke-width="1.5" stroke-linecap="round" stroke-linejoin="round"/>
<path d="M16.542 7.1748C17.2845 8.11647 17.717 9.15811 17.717 10.1164C17.717 12.8498 14.2586 16.1998 10.0003 16.1998C9.24197 16.1998 8.50114 16.0914 7.80859 15.8998" stroke="currentColor" stroke-width="1.5" stroke-linecap="round" stroke-linejoin="round"/>
<path d="M8.13804 11.9724C7.6422 11.4815 7.3647 10.8124 7.3672 10.1149C7.36387 8.66071 8.54052 7.47907 9.99552 7.47657C10.6955 7.4749 11.3672 7.7524 11.8622 8.2474" stroke="currentColor" stroke-width="1.5" stroke-linecap="round" stroke-linejoin="round"/>
<path d="M12.5907 10.583C12.3957 11.6597 11.5532 12.5038 10.4766 12.7013" stroke="currentColor" stroke-width="1.5" stroke-linecap="round" stroke-linejoin="round"/>
<path d="M16.5767 3.54199L3.43164 16.687" stroke="currentColor" stroke-width="1.5" stroke-linecap="round" stroke-linejoin="round"/>
</svg>
