<svg width="20" height="20" viewBox="0 0 20 20" fill="none" xmlns="http://www.w3.org/2000/svg">
<path fill-rule="evenodd" clip-rule="evenodd" d="M17.4994 9.14893H12.1927C11.7327 9.14893 11.3594 9.52143 11.3594 9.98226V10.9239C11.3594 11.3848 11.7327 11.7573 12.1927 11.7573C12.6527 11.7573 13.026 11.3848 13.026 10.9239V10.8156H13.9877V14.4898H13.6627C13.2027 14.4898 12.8294 14.8623 12.8294 15.3231C12.8294 15.7839 13.2027 16.1564 13.6627 16.1564H16.0302C16.4902 16.1564 16.8635 15.7839 16.8635 15.3231C16.8635 14.8623 16.4902 14.4898 16.0302 14.4898H15.6544V10.8156H16.666V10.9239C16.666 11.3848 17.0394 11.7573 17.4994 11.7573C17.9594 11.7573 18.3327 11.3848 18.3327 10.9239V9.98226C18.3327 9.52143 17.9594 9.14893 17.4994 9.14893Z" fill="currentColor"/>
<path fill-rule="evenodd" clip-rule="evenodd" d="M10.1543 14.4905H8.57518V5.50798H12.2543V6.54964C12.2543 7.00964 12.6277 7.38298 13.0877 7.38298C13.5477 7.38298 13.921 7.00964 13.921 6.54964V4.67464C13.921 4.21381 13.5477 3.84131 13.0877 3.84131H2.49935C2.03935 3.84131 1.66602 4.21381 1.66602 4.67464V6.54964C1.66602 7.00964 2.03935 7.38298 2.49935 7.38298C2.95935 7.38298 3.33268 7.00964 3.33268 6.54964V5.50798H6.90852V14.4905H5.43102C4.97102 14.4905 4.59768 14.863 4.59768 15.3238C4.59768 15.7847 4.97102 16.1572 5.43102 16.1572H10.1543C10.6143 16.1572 10.9877 15.7847 10.9877 15.3238C10.9877 14.863 10.6143 14.4905 10.1543 14.4905Z" fill="currentColor"/>
</svg>
