<svg width="18" height="18" viewBox="0 0 18 18" fill="none" xmlns="http://www.w3.org/2000/svg">
<path fill-rule="evenodd" clip-rule="evenodd" d="M17.8379 10.7093C17.9459 10.1593 17.9999 9.57931 17.9999 8.99931C17.9999 8.60731 17.9739 8.22531 17.9239 7.85231C17.8869 7.57831 17.6429 7.37931 17.3669 7.37931H9.5619C9.2519 7.37931 8.9999 7.63131 8.9999 7.94131V10.1473C8.9999 10.4573 9.2519 10.7093 9.5619 10.7093H13.8369C14.0129 10.7093 14.1419 10.8893 14.0759 11.0523C13.1409 13.3623 10.6859 14.8783 7.9439 14.3713C5.83793 13.9823 4.11193 12.3123 3.65993 10.2193C2.89293 6.66731 5.57693 3.52935 8.9999 3.52935C10.1219 3.52935 11.1619 3.86635 12.0289 4.44335C12.2609 4.59735 12.5639 4.58235 12.7599 4.38335L14.4619 2.65035C14.6939 2.41335 14.6799 2.01935 14.4159 1.81835C12.9749 0.722354 11.1929 0.0563539 9.2549 0.00335395C4.38293 -0.131646 0.163934 3.82635 0.0049339 8.69731C-0.162066 13.8053 3.93193 17.9993 8.9999 17.9993C13.3829 17.9993 17.0369 14.8593 17.8379 10.7093Z" fill="currentColor"/>
</svg>
