<svg width="20" height="20" viewBox="0 0 20 20" fill="none" xmlns="http://www.w3.org/2000/svg">
<path fill-rule="evenodd" clip-rule="evenodd" d="M3.74756 6.68774C4.09273 6.68774 4.37256 6.96757 4.37256 7.31274V14.5419C4.37256 15.6068 5.23598 16.4702 6.3008 16.4702H13.7002C14.7651 16.4702 15.6285 15.6068 15.6285 14.5419V7.31274C15.6285 6.96757 15.9083 6.68774 16.2535 6.68774C16.5987 6.68774 16.8785 6.96757 16.8785 7.31274V14.5419C16.8785 16.2971 15.4554 17.7202 13.7002 17.7202H6.3008C4.54562 17.7202 3.12256 16.2971 3.12256 14.5419V7.31274C3.12256 6.96757 3.40238 6.68774 3.74756 6.68774Z" fill="currentColor"/>
<path fill-rule="evenodd" clip-rule="evenodd" d="M8.38408 2.84187C9.33125 2.09308 10.6688 2.09308 11.616 2.84187L17.8879 7.80672C18.1586 8.02096 18.2043 8.414 17.9901 8.68467C17.7758 8.95533 17.3827 9.00108 17.1121 8.78683L10.8408 3.82247C10.8407 3.82238 10.8409 3.82255 10.8408 3.82247C10.3481 3.43316 9.65208 3.43296 9.15933 3.82238C9.15933 3.8224 9.15942 3.82234 9.15933 3.82238L2.88794 8.78683C2.6173 9.00108 2.22422 8.95533 2.00998 8.68467C1.79574 8.414 1.84146 8.02096 2.11211 7.80672L8.38408 2.84187Z" fill="currentColor"/>
<path fill-rule="evenodd" clip-rule="evenodd" d="M14.7231 3.49438C15.0683 3.49438 15.3481 3.77421 15.3481 4.11938V6.08065C15.3481 6.42583 15.0683 6.70565 14.7231 6.70565C14.378 6.70565 14.0981 6.42583 14.0981 6.08065V4.11938C14.0981 3.77421 14.378 3.49438 14.7231 3.49438Z" fill="currentColor"/>
<path fill-rule="evenodd" clip-rule="evenodd" d="M9.97833 11.4063H10.0242C10.3382 11.4063 10.6091 11.4062 10.8325 11.4237C11.0682 11.442 11.303 11.4825 11.5308 11.5923C11.9128 11.7766 12.221 12.0848 12.4053 12.4668C12.5151 12.6946 12.5556 12.9294 12.5739 13.1651C12.5913 13.3885 12.5913 13.6594 12.5913 13.9734V17.0952C12.5913 17.4403 12.3115 17.7202 11.9663 17.7202C11.6212 17.7202 11.3413 17.4403 11.3413 17.0952V13.9963C11.3413 13.6529 11.3409 13.4313 11.3278 13.2622C11.3151 13.1 11.2936 13.0393 11.2793 13.0098C11.2179 12.8824 11.1152 12.7797 10.9878 12.7182C10.9583 12.704 10.8976 12.6825 10.7354 12.6698C10.5663 12.6567 10.3447 12.6562 10.0013 12.6562C9.65783 12.6562 9.43608 12.6567 9.26708 12.6698C9.10483 12.6825 9.04425 12.704 9.01467 12.7182C8.88733 12.7797 8.78458 12.8824 8.72317 13.0098C8.70892 13.0393 8.68742 13.1 8.67475 13.2622C8.66158 13.4313 8.66117 13.6529 8.66117 13.9963V17.0952C8.66117 17.4403 8.38133 17.7202 8.03613 17.7202C7.69095 17.7202 7.41113 17.4403 7.41113 17.0952V13.9734C7.41112 13.6594 7.41111 13.3885 7.42852 13.1651C7.4469 12.9294 7.48742 12.6946 7.59723 12.4668C7.78144 12.0848 8.08972 11.7766 8.47175 11.5923C8.6995 11.4825 8.93425 11.442 9.16992 11.4237C9.39342 11.4062 9.66433 11.4063 9.97833 11.4063Z" fill="currentColor"/>
</svg>
